
<svg xmlns="http://www.w3.org/2000/svg" viewBox="0 0 52 52">
  <linearGradient id="a" x1="9890.103" x2="9891.103" y1="-920.177" y2="-920.177" gradientTransform="matrix(0 37.4194 -35.3167 0 -32457.041 -370075.719)" gradientUnits="userSpaceOnUse">
    <stop offset="0" stop-color="#000"/>
    <stop offset="1" stop-color="#000"/>
  </linearGradient>
  <path fill="url(#a)" d="M40.6 22.3c2.7 0 4.9-2.2 4.9-5s-2.2-5-4.9-5-4.9 2.2-4.9 5 2.2 5 4.9 5z"/>
  <linearGradient id="b" x1="9890.103" x2="9891.103" y1="-919.764" y2="-919.764" gradientTransform="matrix(0 37.4194 -35.3167 0 -32457.041 -370075.719)" gradientUnits="userSpaceOnUse">
    <stop offset="0" stop-color="#000"/>
    <stop offset="1" stop-color="#000"/>
  </linearGradient>
  <path fill="url(#b)" d="M40.6 6c-6.1 0-11 5-11 11.3 0 .4 0 1 .1 1.4l-8 10c-2 0-3.9.8-5.4 2.1L4.9 25.1c-1.6-.8-3.7-.1-4.5 1.7-.8 1.7-.1 3.8 1.6 4.6l11.6 5.7v.3c0 4.7 3.8 8.6 8.4 8.6s8.4-3.9 8.4-8.6l9.5-8.8H41c6.1 0 11-5 11-11.3C52 11 46.7 6 40.6 6zM21.5 43.5c-3 0-5.4-2.2-5.8-5.2l4.3 2.2c.5.3 1 .4 1.5.4 1.2 0 2.4-.7 3.1-2 .8-1.7.1-3.8-1.6-4.6l-4.4-2.2c.8-.6 1.9-.8 2.9-.8 3.3 0 6 2.8 6 6.1s-2.7 6.1-6 6.1zm19.1-18.1c-4.4 0-7.9-3.6-7.9-8.1s3.5-8.1 7.9-8.1c4.3 0 7.9 3.6 7.9 8.1-.2 4.4-3.7 8.1-7.9 8.1z"/>
</svg>
